<svg width="119" height="19" viewBox="0 0 119 19" fill="none" xmlns="http://www.w3.org/2000/svg">
<path d="M0.852273 3.58807V0.545454H15.1875V3.58807H9.84375V18H6.19602V3.58807H0.852273ZM22.2676 18.2557C20.921 18.2557 19.7619 17.983 18.7903 17.4375C17.8244 16.8864 17.0801 16.108 16.5574 15.1023C16.0346 14.0909 15.7733 12.8949 15.7733 11.5142C15.7733 10.1676 16.0346 8.9858 16.5574 7.96875C17.0801 6.9517 17.8159 6.15909 18.7647 5.59091C19.7193 5.02273 20.8386 4.73864 22.1227 4.73864C22.9863 4.73864 23.7903 4.87784 24.5346 5.15625C25.2846 5.42898 25.938 5.84091 26.4949 6.39205C27.0574 6.94318 27.4949 7.63636 27.8074 8.47159C28.1199 9.30114 28.2761 10.2727 28.2761 11.3864V12.3835H17.2221V10.1335H24.8585C24.8585 9.6108 24.7449 9.14773 24.5176 8.74432C24.2903 8.34091 23.975 8.02557 23.5716 7.7983C23.1738 7.56534 22.7108 7.44886 22.1824 7.44886C21.6312 7.44886 21.1426 7.5767 20.7164 7.83239C20.296 8.08239 19.9664 8.42045 19.7278 8.84659C19.4892 9.26705 19.367 9.7358 19.3613 10.2528V12.392C19.3613 13.0398 19.4807 13.5994 19.7193 14.071C19.9636 14.5426 20.3074 14.9062 20.7505 15.1619C21.1937 15.4176 21.7193 15.5455 22.3272 15.5455C22.7307 15.5455 23.1 15.4886 23.4352 15.375C23.7704 15.2614 24.0574 15.0909 24.296 14.8636C24.5346 14.6364 24.7164 14.358 24.8414 14.0284L28.1994 14.25C28.0289 15.0568 27.6795 15.7614 27.1511 16.3636C26.6284 16.9602 25.9522 17.4261 25.1227 17.7614C24.2988 18.0909 23.3471 18.2557 22.2676 18.2557ZM37.2802 18.2557C35.9393 18.2557 34.7859 17.9716 33.82 17.4034C32.8597 16.8295 32.1211 16.0341 31.6041 15.017C31.0927 14 30.837 12.8295 30.837 11.5057C30.837 10.1648 31.0955 8.98864 31.6126 7.97727C32.1353 6.96023 32.8768 6.16761 33.837 5.59943C34.7972 5.02557 35.9393 4.73864 37.2632 4.73864C38.4052 4.73864 39.4052 4.94602 40.2632 5.36079C41.1211 5.77557 41.8001 6.35795 42.3001 7.10795C42.8001 7.85795 43.0757 8.73864 43.1268 9.75H39.7007C39.6041 9.09659 39.3484 8.57102 38.9336 8.1733C38.5245 7.76989 37.9876 7.56818 37.3228 7.56818C36.7603 7.56818 36.2688 7.72159 35.8484 8.02841C35.4336 8.32955 35.1097 8.76989 34.8768 9.34943C34.6438 9.92898 34.5274 10.6307 34.5274 11.4545C34.5274 12.2898 34.641 13 34.8683 13.5852C35.1012 14.1705 35.4279 14.6165 35.8484 14.9233C36.2688 15.2301 36.7603 15.3835 37.3228 15.3835C37.7376 15.3835 38.1097 15.2983 38.4393 15.1278C38.7745 14.9574 39.0501 14.7102 39.266 14.3864C39.4876 14.0568 39.6325 13.6619 39.7007 13.2017H43.1268C43.07 14.2017 42.7972 15.0824 42.3086 15.8438C41.8257 16.5994 41.158 17.1903 40.3058 17.6165C39.4535 18.0426 38.445 18.2557 37.2802 18.2557ZM49.802 10.4318V18H46.1714V0.545454H49.6998V7.21875H49.8532C50.1486 6.44602 50.6259 5.84091 51.285 5.40341C51.9441 4.96023 52.7708 4.73864 53.7651 4.73864C54.6742 4.73864 55.4668 4.9375 56.143 5.33523C56.8248 5.72727 57.3532 6.29261 57.7282 7.03125C58.1089 7.7642 58.2964 8.64205 58.2907 9.66477V18H54.66V10.3125C54.6657 9.50568 54.4611 8.87784 54.0464 8.42898C53.6373 7.98011 53.0634 7.75568 52.3248 7.75568C51.8305 7.75568 51.393 7.8608 51.0123 8.07102C50.6373 8.28125 50.3418 8.58807 50.1259 8.99148C49.9157 9.3892 49.8077 9.86932 49.802 10.4318ZM73.51 6.1875C73.3907 5.77273 73.223 5.40625 73.0071 5.08807C72.7912 4.7642 72.527 4.49148 72.2145 4.26989C71.9077 4.04261 71.5554 3.86932 71.1577 3.75C70.7657 3.63068 70.331 3.57102 69.8537 3.57102C68.9617 3.57102 68.1776 3.79261 67.5015 4.23579C66.831 4.67898 66.3083 5.32386 65.9333 6.17045C65.5583 7.01136 65.3708 8.03977 65.3708 9.25568C65.3708 10.4716 65.5554 11.5057 65.9247 12.358C66.2941 13.2102 66.8168 13.8608 67.4929 14.3097C68.1691 14.7528 68.9674 14.9744 69.8878 14.9744C70.723 14.9744 71.4361 14.8267 72.027 14.5312C72.6236 14.2301 73.0782 13.8068 73.3907 13.2614C73.7088 12.7159 73.8679 12.071 73.8679 11.3267L74.6179 11.4375H70.1179V8.65909H77.4219V10.858C77.4219 12.392 77.098 13.7102 76.4503 14.8125C75.8026 15.9091 74.9105 16.7557 73.7742 17.3523C72.6378 17.9432 71.3367 18.2386 69.8708 18.2386C68.2344 18.2386 66.7969 17.8778 65.5583 17.1562C64.3196 16.429 63.3537 15.3977 62.6605 14.0625C61.973 12.7216 61.6293 11.1307 61.6293 9.28977C61.6293 7.875 61.8338 6.61364 62.2429 5.50568C62.6577 4.39205 63.2372 3.44886 63.9816 2.67614C64.7259 1.90341 65.5924 1.31534 66.581 0.911931C67.5696 0.508522 68.6407 0.306818 69.7941 0.306818C70.7827 0.306818 71.7032 0.451704 72.5554 0.741477C73.4077 1.02557 74.1634 1.42898 74.8225 1.9517C75.4872 2.47443 76.0299 3.09659 76.4503 3.81818C76.8708 4.53409 77.1407 5.32386 77.26 6.1875H73.51ZM86.8116 18.2557C85.4651 18.2557 84.306 17.983 83.3344 17.4375C82.3685 16.8864 81.6241 16.108 81.1014 15.1023C80.5787 14.0909 80.3173 12.8949 80.3173 11.5142C80.3173 10.1676 80.5787 8.9858 81.1014 7.96875C81.6241 6.9517 82.3599 6.15909 83.3088 5.59091C84.2634 5.02273 85.3827 4.73864 86.6668 4.73864C87.5304 4.73864 88.3344 4.87784 89.0787 5.15625C89.8287 5.42898 90.4821 5.84091 91.0389 6.39205C91.6014 6.94318 92.0389 7.63636 92.3514 8.47159C92.6639 9.30114 92.8202 10.2727 92.8202 11.3864V12.3835H81.7662V10.1335H89.4026C89.4026 9.6108 89.2889 9.14773 89.0616 8.74432C88.8344 8.34091 88.519 8.02557 88.1156 7.7983C87.7179 7.56534 87.2548 7.44886 86.7264 7.44886C86.1753 7.44886 85.6866 7.5767 85.2605 7.83239C84.8401 8.08239 84.5105 8.42045 84.2719 8.84659C84.0332 9.26705 83.9111 9.7358 83.9054 10.2528V12.392C83.9054 13.0398 84.0247 13.5994 84.2634 14.071C84.5077 14.5426 84.8514 14.9062 85.2946 15.1619C85.7378 15.4176 86.2634 15.5455 86.8713 15.5455C87.2747 15.5455 87.644 15.4886 87.9793 15.375C88.3145 15.2614 88.6014 15.0909 88.8401 14.8636C89.0787 14.6364 89.2605 14.358 89.3855 14.0284L92.7435 14.25C92.573 15.0568 92.2236 15.7614 91.6952 16.3636C91.1724 16.9602 90.4963 17.4261 89.6668 17.7614C88.8429 18.0909 87.8912 18.2557 86.8116 18.2557ZM99.6424 18.2472C98.8072 18.2472 98.0629 18.1023 97.4095 17.8125C96.7561 17.517 96.239 17.0824 95.8584 16.5085C95.4834 15.929 95.2959 15.2074 95.2959 14.3438C95.2959 13.6165 95.4294 13.0057 95.6964 12.5114C95.9635 12.017 96.3271 11.6193 96.7873 11.3182C97.2476 11.017 97.7703 10.7898 98.3555 10.6364C98.9464 10.483 99.5657 10.375 100.213 10.3125C100.975 10.233 101.588 10.1591 102.054 10.0909C102.52 10.017 102.858 9.90909 103.069 9.76705C103.279 9.625 103.384 9.41477 103.384 9.13636V9.08523C103.384 8.54545 103.213 8.12784 102.873 7.83239C102.537 7.53693 102.06 7.3892 101.441 7.3892C100.787 7.3892 100.267 7.53409 99.8811 7.82386C99.4947 8.10795 99.239 8.46591 99.114 8.89773L95.7561 8.625C95.9265 7.82955 96.2618 7.14205 96.7618 6.5625C97.2618 5.97727 97.9066 5.52841 98.6964 5.21591C99.4919 4.89773 100.412 4.73864 101.458 4.73864C102.185 4.73864 102.881 4.82386 103.546 4.99432C104.216 5.16477 104.81 5.42898 105.327 5.78693C105.85 6.14489 106.262 6.60511 106.563 7.16761C106.864 7.72443 107.015 8.39205 107.015 9.17045V18H103.571V16.1847H103.469C103.259 16.5938 102.978 16.9545 102.625 17.267C102.273 17.5739 101.85 17.8153 101.356 17.9915C100.861 18.1619 100.29 18.2472 99.6424 18.2472ZM100.682 15.7415C101.216 15.7415 101.688 15.6364 102.097 15.4261C102.506 15.2102 102.827 14.9205 103.06 14.5568C103.293 14.1932 103.409 13.7812 103.409 13.321V11.9318C103.296 12.0057 103.14 12.0739 102.941 12.1364C102.748 12.1932 102.529 12.2472 102.284 12.2983C102.04 12.3437 101.796 12.3864 101.552 12.4261C101.307 12.4602 101.086 12.4915 100.887 12.5199C100.461 12.5824 100.088 12.6818 99.7703 12.8182C99.4521 12.9545 99.2049 13.1392 99.0288 13.3722C98.8527 13.5994 98.7646 13.8835 98.7646 14.2244C98.7646 14.7188 98.9436 15.0966 99.3015 15.358C99.6652 15.6136 100.125 15.7415 100.682 15.7415ZM110.551 18V4.90909H114.071V7.19318H114.208C114.446 6.38068 114.847 5.76705 115.409 5.35227C115.972 4.93182 116.62 4.72159 117.353 4.72159C117.534 4.72159 117.73 4.73295 117.941 4.75568C118.151 4.77841 118.335 4.80966 118.495 4.84943V8.07102C118.324 8.01989 118.088 7.97443 117.787 7.93466C117.486 7.89489 117.21 7.875 116.96 7.875C116.426 7.875 115.949 7.99148 115.529 8.22443C115.114 8.4517 114.784 8.76989 114.54 9.17898C114.301 9.58807 114.182 10.0597 114.182 10.5938V18H110.551Z" fill="black"/>
</svg>
